# xmcd
#
# Track frame offsets:
#	182
#	18172
#	37447
#	49942
#	63145
#	74865
#	87457
#	100252
#	110632
#	123450
#	138735
#	152175
#
# Disc length: 2176 seconds
#
# Revision: 0
# Processed by: cddbd v1.4PL0 Copyright (c) Steve Scherf et al.
# Submitted via: dBpowerAMP V4.0
#
DISCID=b8087e0c
DTITLE=Reba McEntire - The Best Of
DYEAR=1900
DGENRE=Country
TTITLE0=I've Never Stoped dreaming of you
TTITLE1=You Really Better Love Me After This
TTITLE2=I'm Not That Lonlely yet
TTITLE3=Gonna Love Yah(Till The Cows Come Home)
TTITLE4=Watin For The Sun To Shine
TTITLE5=(You Lift Me) Up To Heaven
TTITLE6=Whoever's Watchin'
TTITLE7=Over, Under and Around
TTITLE8=Only You(And You Alone)
TTITLE9=Everything I'll Ever Own
TTITLE10=Nickel Dreams
TTITLE11=Cant Even Get The Blues
EXTD=
EXTT0=
EXTT1=
EXTT2=
EXTT3=
EXTT4=
EXTT5=
EXTT6=
EXTT7=
EXTT8=
EXTT9=
EXTT10=
EXTT11=
PLAYORDER=
